{"title":"Marco.Polo.2014.S01.2160p.Netflix.WEBRip.DTS-HD.MA5.1.x264-Troll","uid":15296004,"size":99228091835,"categoryP":"video","categoryS":"hd___tv_shows","magnet":"?xt=urn:btih:d1fc8af11de5334f54377a13216ce32e30110a9f&amp;dn=Marco.Polo.2014.S01.2160p.Netflix.WEBRip.DTS-HD.MA5.1.x264-Troll&amp;tr=udp%3A%2F%2Ftracker.leechers-paradise.org%3A6969&amp;tr=udp%3A%2F%2Fzer0day.ch%3A1337&amp;tr=udp%3A%2F%2Fopen.demonii.com%3A1337&amp;tr=udp%3A%2F%2Ftracker.coppersurfer.tk%3A6969&amp;tr=udp%3A%2F%2Fexodus.desync.com%3A6969","seeders":3,"leechers":5,"uploader":"BreexeOX","files":10,"time":1468449697,"description":"General\r\nFormat                         : Matroska\r\nFormat version                 : Version 4 / Version 2\r\nFile size                      : 8.68 GiB\r\nDuration                       : 51mn 14s\r\nOverall bit rate               : 24.3 Mbps\r\nEncoded date                   : UTC 2015-12-19 15:51:37\r\nWriting application            : mkvmerge v8.3.0 ('Over the Horizon') 64bit\r\n\r\nVideo\r\nID                             : 1\r\nFormat                         : AVC\r\nFormat/Info                    : Advanced Video Codec\r\nFormat profile                 :   \r\nFormat settings, CABAC         : Yes\r\nFormat settings, ReFrames      : 5 frames\r\nCodec ID                       : V_MPEG4/ISO/AVC\r\nDuration                       : 51mn 11s\r\nBit rate                       : 20.8 Mbps\r\nWidth                          : 3 840 pixels\r\nHeight                         : 1 920 pixels\r\nDisplay aspect ratio           : 2.000\r\nFrame rate mode                : Constant\r\nFrame rate                     : 23.976 (24000/1001) fps\r\nColor space                    : YUV\r\nChroma subsampling             : 4:2:0\r\nBit depth                      : 8 bits\r\nScan type                      : Progressive\r\nBits/(Pixel*Frame)             : 0.117\r\nStream size                    : 7.42 GiB (86%)\r\nWriting library                : x264 core 146 r2538 121396c\r\nDefault                        : Yes\r\nForced                         : No\r\n\r\nAudio\r\nID                             : 2\r\nFormat                         : DTS\r\nFormat/Info                    : Digital Theater Systems\r\nFormat profile                 : MA / Core\r\nMode                           : 16\r\nFormat settings, Endianness    : Big\r\nCodec ID                       : A_DTS\r\nDuration                       : 51mn 14s\r\nBit rate mode                  : Variable / Constant\r\nBit rate                       : 3 497 Kbps / 1 509 Kbps\r\nChannel(s)                     : 6 channels\r\nChannel positions              : Front: L C R, Side: L R, LFE\r\nSampling rate                  : 48.0 KHz\r\nFrame rate                     : 93.750 fps (512 spf)\r\nBit depth                      : 24 bits\r\nCompression mode               : Lossless / Lossy\r\nStream size                    : 1.25 GiB (14%)\r\nLanguage                       : English\r\nDefault                        : Yes\r\nForced                         : No\r\n\r\nText\r\nID                             : 3\r\nFormat                         : PGS\r\nMuxing mode                    : zlib\r\nCodec ID                       : S_HDMV/PGS\r\nCodec ID/Info                  : Picture based subtitle format used on BDs/HD-DVDs\r\nDuration                       : 47mn 41s\r\nBit rate                       : 8 769 bps\r\nCount of elements              : 1122\r\nStream size                    : 2.99 MiB (0%)\r\nLanguage                       : English\r\nDefault                        : Yes\r\nForced                         : No","torrent":{"xt":"urn:btih:d1fc8af11de5334f54377a13216ce32e30110a9f","amp;dn":"Marco.Polo.2014.S01.2160p.Netflix.WEBRip.DTS-HD.MA5.1.x264-Troll","amp;tr":["udp%3A%2F%2Ftracker.leechers-paradise.org%3A6969","udp%3A%2F%2Fzer0day.ch%3A1337","udp%3A%2F%2Fopen.demonii.com%3A1337","udp%3A%2F%2Ftracker.coppersurfer.tk%3A6969","udp%3A%2F%2Fexodus.desync.com%3A6969"],"infoHash":"d1fc8af11de5334f54377a13216ce32e30110a9f","infoHashBuffer":{"type":"Buffer","data":[209,252,138,241,29,229,51,79,84,55,122,19,33,108,227,46,48,17,10,159]},"announce":[],"urlList":[]}}